<svg xmlns="http://www.w3.org/2000/svg" width="100%" height="100%" viewBox="0 0 658 468" fill-rule="evenodd" stroke-linejoin="round" stroke-miterlimit="2" xmlns:v="https://vecta.io/nano"><path d="M69.832 397.859C29.838 388.711 0 352.912 0 310.144V89.98C0 40.286 40.285 0 89.979 0h410.076c42.768 0 78.567 29.839 87.715 69.833 39.994 9.148 69.832 44.947 69.832 87.715v220.164c0 49.694-40.285 89.98-89.979 89.98H157.547c-42.768 0-78.567-29.839-87.715-69.833zm478.932-330.29c-8.486-18.413-27.105-31.194-48.709-31.194H89.979c-29.605 0-53.605 24-53.605 53.605v220.164c0 21.604 12.781 40.223 31.194 48.709V157.548c0-49.694 40.285-89.979 89.979-89.979h391.217zm72.464 97.367v-7.388c0-29.605-24-53.604-53.605-53.604H157.547c-29.605 0-53.604 23.999-53.604 53.604v7.388h517.285zm-517.285 70.251v142.525c0 29.605 23.999 53.605 53.604 53.605h410.076c29.605 0 53.605-24 53.605-53.605V235.187H103.943zm485.702 32.443v70.251H443.947V267.63h145.698z"/></svg>