<svg xmlns="http://www.w3.org/2000/svg" viewBox="0 0 1000 702.7"><path d="M999.77 247.65A385.91 385.91 0 0 0 958.42 60a132.46 132.46 0 0 0-78.13-45.41A3566.28 3566.28 0 0 0 500.09.53a3564.75 3564.75 0 0 0-378.86 13.63 130.11 130.11 0 0 0-66.32 33.63C14 85.48 9.5 150 4.94 204.49 1.78 248.53 0 299.88 0 351.66s1.78 103.17 5.31 154l-.37-6.87a433.16 433.16 0 0 0 13.62 90.85 142.94 142.94 0 0 0 32.38 61.96l-.12-.12a130.15 130.15 0 0 0 67.69 35.44 2053.2 2053.2 0 0 0 295.26 15c159 2.28 298.44 0 463.33-12.72a130.79 130.79 0 0 0 69.51-35.44 112.68 112.68 0 0 0 27.47-44.63l.22-.81c15-44.48 23.66-95.7 23.66-149v-5.81.28c1.81-25.44 1.81-179 1.81-206.24zm-602.35 233.5V200l268.91 141.22c-75.42 41.78-174.9 89.05-268.91 139.93z"/></svg>