<svg xmlns="http://www.w3.org/2000/svg" viewBox="0 0 1000 888.83"><path d="M248.86 58.84a218.42 218.42 0 0 1 162.71 75.89l.23.29 42.36 49.41L500 236.79l44.71-52.36L588.29 135a219.12 219.12 0 0 1 162.13-76.16h4.9C858 60.82 940.56 144.19 941.22 247v3c0 159.12-174.12 317-437.34 555.87l-4.12 3.81-4.42-4.12C232.41 566.45 58.87 408.82 58.87 249.41v-4.13A189.74 189.74 0 0 1 247.34 58.81h1.52zM755.61 0h-5.3a275.61 275.61 0 0 0-207.62 96.39l-.32.37-42.37 50.3-42.36-50.3C407 37.86 332.64.63 249.52 0h-2.46C111.66.32 1.83 109.23 0 244.25v5.16C0 435 181.16 599.41 456.77 850L500 888.83l43.24-39.41C818.23 600 1000 435 1000 250h0v-2.95C999.86 111.6 890.83 1.66 755.75 0z"/></svg>