<svg xmlns="http://www.w3.org/2000/svg" viewBox="0 0 553.3 106"><path d="M551.8 65.8c-5.4 20.5-18.8 32.9-39.3 37-18.5 3.8-35.3-.8-49.2-13.9-17.7-16.7-19.6-40.6-9.1-60.6 8.3-15.8 21.5-25.2 39.3-27.3C515-1.6 537.6 8.2 548 29.8c2.7 5.6 4.3 11.6 4.9 17.8.4 2.8 1 8.8-1.1 18.2zm-90.2-10.7c.4 12.7 5.9 24.1 18.4 31.2 8.6 4.9 18 6.2 27.8 4.6 19.6-3.2 36-21.2 32.5-43.7-3.8-24.4-26.6-38.2-49.1-32.6-17.7 4.4-29.7 20.4-29.6 40.5h0zM165.7 81.5l9.9-6.2c2.9 4.6 3.2 5.6 6.9 10.1 2.8 3.4 6.2 5.1 10.8 5.9 6.9 1.2 17-2.7 18.9-11.8 1-4.8-.3-9.2-3.5-12.7-2-2.3-4.4-4.2-6.8-6.1L183 46.1c-5.4-4.3-9-9.8-10.3-16.8-2.6-13.5 7.5-27 21.1-28.4 9.5-1 17.8 1.8 24.3 8.8 2.6 2.8 3.8 4.2 7.3 8.9L215 26.5l-3.4-4c-3.9-4.5-8.8-8.1-14.2-8.5-4-.4-8 1.4-10.3 4.9-2.5 3.7-3.3 7.8-.8 11.7 1.6 2.6 3.8 5 6.2 6.9l19.2 15.7c3.3 2.8 6.6 5.6 9.3 8.9 5.9 7 6.9 15 3.5 23.6-4.9 12.2-15.1 18.8-28.5 18.4-8.2-.2-15-3.3-20.7-9-4.1-4-7-8.6-9.6-13.6h0zM0 2.5h3.9l29.3.9c7.2.3 14.5.6 21.4 2.9 13.2 4.3 21.7 13.5 26.6 26.2 7.2 18.9 5.5 37-6.2 53.7-6.6 9.5-15.9 14.8-27.6 15.5l-44 1.9H-.2L0 2.5zm12.9 88.4h13.6c6.2-.2 12.4-.1 18.5-1 11.3-1.7 20-7.5 24.5-18.4 4.3-10.4 4.7-21.2.9-31.8C65.8 27 57 19.1 43.5 17.2c-8-1.1-16-1.5-24.1-2.2-2.2-.2-4.3-.3-6.6-.4v76.3h.1zM320.1 0c2.6 2.3 5.3 4.1 7.3 6.5l59.1 68V2.9h12.4v103c-2.8-2.5-5.5-4.5-7.8-7.1l-57-65.8c-.2-.2-.4-.5-.9-1v70.8H320V0h.1zm-75.8 102.8V2.9h58.4v12H257v27.6h27.4v12.7H257v35.4h45.2v12.2h-57.9zM113.4 55.2v35.4h45.1v12.3h-57.6V3H159v12.1h-45.7v27.5H141v12.6h-27.6zM432.3 103h-11.7V2.9h11.7V103z"/></svg>