<svg xmlns="http://www.w3.org/2000/svg" width="100%" height="100%" viewBox="0 0 729 609" fill-rule="evenodd" stroke-linejoin="round" stroke-miterlimit="2" xmlns:v="https://vecta.io/nano"><path d="M173.329 290.577H17.755C7.956 290.577 0 282.622 0 272.822s7.956-17.755 17.755-17.755h155.574v-62.519c0-28.771 15.444-55.327 40.451-69.555L411.555 10.47c24.536-13.96 54.611-13.96 79.147 0l197.775 112.523a80.12 80.12 0 0 1 40.451 69.555v223.55a80.12 80.12 0 0 1-40.451 69.555L490.702 598.176c-24.536 13.96-54.611 13.96-79.147 0L213.78 485.653c-22.856-13.005-37.892-36.473-40.155-62.672H64.365c-9.799 0-17.755-7.956-17.755-17.755s7.956-17.756 17.755-17.756h108.964v-28.872h-74.74c-9.799 0-17.755-7.956-17.755-17.755s7.956-17.755 17.755-17.755h74.74v-32.511zm42.046 132.404c2.017 11.13 8.859 20.954 18.892 26.663l197.775 112.524a40.31 40.31 0 0 0 1.417.767V318.103l-218.701-124.43v61.394h34.24c9.799 0 17.755 7.956 17.755 17.755s-7.956 17.755-17.755 17.755h-34.24v32.511h74.74c9.799 0 17.755 7.956 17.755 17.755s-7.956 17.755-17.755 17.755h-74.74v28.872h119.145c9.799 0 17.755 7.956 17.755 17.756s-7.956 17.755-17.755 17.755H215.375zm253.423 139.954a40.31 40.31 0 0 0 1.417-.767l197.774-112.524c12.061-6.862 19.51-19.67 19.51-33.546V193.673l-218.701 124.43v244.832zm197.527-404.88l-87.908-50.015-214.103 123.058 86.814 49.393 215.197-122.436zM536.637 84.269l-66.422-37.791a38.64 38.64 0 0 0-38.173 0l-196.11 111.577 86.602 49.272L536.637 84.269zm-24.858 378.524c12.37 0 22.413 10.956 22.413 24.452s-10.043 24.451-22.413 24.451-22.414-10.956-22.414-24.451 10.043-24.452 22.414-24.452zm51.843-27.896c12.37 0 22.413 10.956 22.413 24.451S575.992 483.8 563.622 483.8s-22.414-10.956-22.414-24.452 10.044-24.451 22.414-24.451z"/></svg>