<svg xmlns="http://www.w3.org/2000/svg" width="100%" height="100%" viewBox="0 0 605 602" fill-rule="evenodd" stroke-linejoin="round" stroke-miterlimit="2" xmlns:v="https://vecta.io/nano"><path d="M335.65 205.081c.823-70.544 41.136-124.754 94.046-159.686 53.071-35.038 118.757-50.518 169.087-43.9 3.678.483 6.267 3.856 5.783 7.533-6.585 50.09-29.162 122.815-71.692 177.63-42.571 54.868-104.869 91.969-190.721 72.233-21.231 27.869-39.358 56.496-53.687 84.93 49.84 79.279 59.811 164.579.497 249.036-3.306 4.709-8.526 7.713-14.257 8.21a19.48 19.48 0 0 1-15.458-5.639c-43.437-43.481-54.911-105.295-40.162-174.094 5.163-24.09 13.579-49.079 24.877-74.364-17.441-24.222-38.914-47.731-63.208-70.334-56.19 9.367-98.141-13.868-127.756-52.008C23.61 186.778 6.56 133.963.058 84.509c-.484-3.677 2.105-7.05 5.783-7.533 56.563-7.438 118.534 14.953 160.065 51.615 37.672 33.255 58.417 78.092 44.89 122.959 19.426 18.411 37.086 37.398 52.493 56.84 19.387-34.954 43.848-69.914 72.361-103.309zm34.956 19.111c56.262 5.916 98.412-20.408 128.661-57.827 30.437-37.652 49.731-85.743 59.859-126.788-35.409 3.039-74.592 16.286-107.969 38.322-29.415 19.421-54.472 45.953-67.329 79.242 12.977-8.709 28.024-16.01 40.952-21.985 9.228-4.264 19.206-4.737 25.882 2.93 7.244 8.319 6.605 22.344-2.786 28.129-26.249 16.17-56.564 35.394-77.27 57.977zm-194.841-3.967c-.904-15.606-7.85-30.638-18.252-44.056-24.722-31.889-68.032-55.724-112.103-60.734 5.993 24.442 14.952 48.45 27.346 69.135 15.197 25.36 36.002 45.398 63.546 52.316l-16.59-16.374c-7.672-7.442-10.214-17.501-3.794-25.979l.002-.003c6.598-8.703 17.671-9.093 26.315-2.506 10.888 8.296 22.734 18.72 33.53 28.201zm93.401 168.002c-5.073 13.97-9.102 27.768-11.996 41.271-9.592 44.742-6.67 86.07 13.736 118.509 28.656-54.186 23.955-108.224-1.74-159.78z"/></svg>