<svg xmlns="http://www.w3.org/2000/svg" viewBox="0 0 879.47 1000"><path d="M879.44 460.66v-20.94-4.52a424.92 424.92 0 0 0-129.23-305.75l-.09-.09C673.13 49.56 565.24 0 445.78 0l-6.37.06h.31-6.15a421.12 421.12 0 0 0-304.09 129.2l-.12.13C49.53 206.78 0 315 0 434.79V440v267.42A139.8 139.8 0 0 0 43.69 809.1l.06.06a140.54 140.54 0 0 0 102.05 43.73h148.09V460.76H51.77v-20.94l-.06-6.68A370.56 370.56 0 0 1 165 166l.09-.1A367.58 367.58 0 0 1 431.73 51.74l8.43.1h-.41c2.31-.07 5.06-.1 7.8-.1a368 368 0 0 1 266.77 114l.13.12a371.69 371.69 0 0 1 113.34 267.68l-.06 6.59v20.59H586.4V853.6h226.32v8.4a74.59 74.59 0 0 1-66.41 74.06h-.34-306.25V1000h293a148.55 148.55 0 0 0 146.69-146.3v-393z"/></svg>