<svg xmlns="http://www.w3.org/2000/svg" width="100%" height="100%" viewBox="0 0 756 486" fill-rule="evenodd" stroke-linejoin="round" stroke-miterlimit="2"><path d="M51.665 425.34c-13.703 0-26.844-5.443-36.533-15.132S0 387.377 0 373.675V51.665c0-13.703 5.443-26.844 15.132-36.533S37.962 0 51.665 0h407.348c13.703 0 26.844 5.443 36.533 15.132s15.132 22.83 15.132 36.533v39.027H636.37a16.16 16.16 0 0 1 14.272 8.629l52.724 100.499h36.263c8.841.002 16.115 7.276 16.117 16.117v193.308c-.002 8.841-7.276 16.115-16.117 16.117s-44.79 0-44.789-.001c-11.725 35.483-45.293 60.508-83.617 60.515h-.027c-38.305-.058-71.838-25.075-83.578-60.536H247.953c-11.469 35.127-44.517 60.536-83.453 60.536s-71.984-25.409-83.453-60.536H51.665zm415.196-43.803V63.241c0-10.66-8.771-19.431-19.43-19.431H63.067c-10.66 0-19.431 8.771-19.431 19.43v298.866c0 10.66 8.771 19.431 19.43 19.431h15.233c7.758-40.527 43.427-71.193 86.201-71.193s78.443 30.666 86.201 71.193h216.16zm100.135 16.301c.122 24.179 20.051 44.015 44.238 44.015 20.921 0 39.1-14.839 43.324-35.289l.074-.407c.531-2.741.806-5.527.82-8.319v-.068l-.001-.104c-.356-24.002-20.203-43.575-44.227-43.575s-43.871 19.573-44.227 43.575v.028c-.001.026-.001.051-.001.077v.067zm144.953-16.301l-.011-138.081H510.664v138.081h14.162c7.949-40.399 43.884-71.196 86.398-71.196s78.449 30.797 86.398 71.196h14.327zM510.67 134.495l-.005 65.332h143.354l-34.422-65.332H510.67zM164.5 354.227c-24.22 0-43.883 19.663-43.883 43.883s19.663 43.883 43.883 43.883 43.883-19.663 43.883-43.883-19.663-43.883-43.883-43.883z"/></svg>