<svg xmlns="http://www.w3.org/2000/svg" viewBox="0 0 1000 1000" fill-rule="evenodd" stroke-linejoin="round" stroke-miterlimit="2"><clipPath id="A"><path d="M0 0h999.41v1000H0z"/></clipPath><g clip-path="url(#A)"><path d="M600.149 705.193c-61.377 41.33-135.301 65.468-214.819 65.468C172.661 770.661 0 598 0 385.33S172.661 0 385.33 0s385.331 172.661 385.331 385.33c0 79.815-24.319 153.995-65.943 215.523l273.059 273.059c13.851 13.852 21.633 32.638 21.633 52.227A73.86 73.86 0 0 1 925.549 1000c-19.589 0-38.375-7.782-52.227-21.633L600.149 705.193zM385.33 120.608c146.105 0 264.723 118.618 264.723 264.722S531.435 650.053 385.33 650.053 120.608 531.435 120.608 385.33 239.226 120.608 385.33 120.608zm46.526 223.579h129.143v85.227H431.856v129.144h-85.227V429.414H217.485v-85.227h129.144V215.044h85.227v129.143z"/></g></svg>